<svg id="圖層_1" data-name="圖層 1" xmlns="http://www.w3.org/2000/svg" xmlns:xlink="http://www.w3.org/1999/xlink" viewBox="0 0 98.03 198.86"><defs><style>.cls-1,.cls-6{fill:none;}.cls-2{clip-path:url(#clip-path);}.cls-3{fill:#231815;}.cls-4{clip-path:url(#clip-path-2);}.cls-5{clip-path:url(#clip-path-3);}.cls-6{stroke:#231815;stroke-miterlimit:10;stroke-width:0.61px;}</style><clipPath id="clip-path" transform="translate(-237.57 -287.6)"><path class="cls-1" d="M332.59,458.49c8.82-23.35-5.46-54.68-18.89-84.3-20.11-44.36-2.23-86.49-2.23-86.49L260.4,343.23s11.81,27.77,44.36,57.45,28,57.22,28,57.22"/></clipPath><clipPath id="clip-path-2" transform="translate(-237.57 -287.6)"><path class="cls-1" d="M306.25,402.32a104.14,104.14,0,0,1,1.89,12.44c1.36,15.49-2.73,32.28-14.28,43.29-7.66,7.31-21.48,13.73-31.22,6.73a26,26,0,0,1-3.41-2.92c8.6,17.44,31.62,26.19,50.6,20.22,8.35-2.63,18.3-11,22.78-24.63C334.34,452.7,334.56,429.17,306.25,402.32Z"/></clipPath><clipPath id="clip-path-3" transform="translate(-237.57 -287.6)"><path class="cls-1" d="M256.65,459c1.43-14.17,6.82-18.1,8.73-33.76s-4.85-21.84-4.85-21.84a25.39,25.39,0,0,1,8.58,5.37A20.19,20.19,0,0,1,275,421.35c1.14,9.47-1.72,15,7.18,25.89,1.82,2.24,5.07,5.43,7.87,6.31,6.65,2.09,8-.55,8-.55a21.89,21.89,0,0,1-4.4,5.63c-8.06,6.87-20.17,12.78-29.67,7.29a38.83,38.83,0,0,1-5.2-4.51L256.65,459Z"/></clipPath></defs><title>J LOGO</title><g class="cls-2"><path class="cls-3" d="M299.43,486.46l-.18-.5c16.8-5.8,27.42-14.29,32.45-26,10-23.3-4.26-54.83-18.08-85.33l-.16-.36c-19.93-44-2.42-86.28-2.24-86.7l.49.21c-.17.42-17.59,42.53,2.23,86.27l.17.36C328,405,342.32,436.68,332.19,460.2,327.1,472,316.38,480.62,299.43,486.46Z" transform="translate(-237.57 -287.6)"/><path class="cls-3" d="M301,485.24l-.18-.51c16-5.53,26.16-13.74,30.94-25.09,9.94-23.61-5.93-57.17-18.69-84.13-20.48-43.3-4.32-85-4.15-85.38l.49.2c-.16.41-16.24,41.87,4.15,84.95,12.8,27.06,28.73,60.74,18.7,84.57C327.39,471.35,317.17,479.66,301,485.24Z" transform="translate(-237.57 -287.6)"/><path class="cls-3" d="M302.53,484l-.18-.51c15.27-5.26,24.9-13.17,29.43-24.2,9.07-22.05-4.48-52.89-19.13-82.58-21-42.64-6.23-83.65-6.08-84.06l.5.19c-.15.4-14.88,41.21,6.06,83.63,14.71,29.8,28.3,60.76,19.15,83C327.68,470.68,318,478.69,302.53,484Z" transform="translate(-237.57 -287.6)"/><path class="cls-3" d="M304.08,482.78l-.18-.5c14.5-5,23.63-12.62,27.92-23.3,8.95-22.3-5.41-53.53-19.58-81.06-21.6-42-8.13-82.33-8-82.73l.51.17c-.14.4-13.54,40.56,8,82.32,14.22,27.63,28.63,59,19.59,81.5C328,469.87,318.53,477.81,304.08,482.78Z" transform="translate(-237.57 -287.6)"/><path class="cls-3" d="M305.63,481.56l-.18-.51c13.53-4.66,22.41-12.19,26.4-22.37,8.43-21.53-5.39-52.29-20-79.55-22.17-41.31-10-81-9.91-81.41l.51.16c-.13.39-12.18,39.89,9.87,81,14.68,27.36,28.54,58.27,20,80C328.3,469.21,319.31,476.84,305.63,481.56Z" transform="translate(-237.57 -287.6)"/><path class="cls-3" d="M307.18,480.33l-.18-.5c12.76-4.4,21.12-11.61,24.87-21.44,8.34-21.85-6.54-53.19-20.43-78.05-22.73-40.65-11.95-79.7-11.83-80.09l.51.15c-.11.39-10.83,39.23,11.78,79.68,14,25,28.89,56.44,20.48,78.5C328.56,468.56,320.09,475.88,307.18,480.33Z" transform="translate(-237.57 -287.6)"/><path class="cls-3" d="M308.73,479.11l-.18-.51c12-4.13,19.83-11,23.35-20.48,6.21-16.74-.61-41.78-20.87-76.57-23.28-40-13.85-78.38-13.75-78.77l.52.14c-.1.38-9.48,38.57,13.69,78.36,20.35,34.94,27.19,60.13,20.91,77C328.82,467.93,320.86,474.93,308.73,479.11Z" transform="translate(-237.57 -287.6)"/><path class="cls-3" d="M310.28,477.88l-.18-.51c11.19-3.85,18.53-10.42,21.82-19.51,6-16.62-1.15-41.89-21.29-75.1-23.85-39.33-15.76-77.07-15.67-77.45l.52.12c-.08.38-8.12,37.92,15.61,77.05,20.22,33.36,27.4,58.78,21.33,75.56C329.08,467.29,321.63,474,310.28,477.88Z" transform="translate(-237.57 -287.6)"/><path class="cls-3" d="M311.83,476.65l-.18-.5c10.4-3.59,17.23-9.82,20.29-18.53,4-11.5,3.55-33.62-21.72-73.65-24.4-38.67-17.66-75.75-17.58-76.12l.52.1c-.07.37-6.77,37.25,17.52,75.73,14,22.2,29.16,53.07,21.76,74.12C329.33,466.67,322.39,473,311.83,476.65Z" transform="translate(-237.57 -287.6)"/><path class="cls-3" d="M313.38,475.43l-.18-.51c9.61-3.31,15.92-9.2,18.75-17.51,5.58-16.36-2.28-42-22.13-72.24-25-38-19.56-74.43-19.51-74.79l.53.08c-.06.36-5.42,36.6,19.43,74.42,20,30.36,27.83,56.18,22.19,72.7C329.57,466.06,323.15,472.06,313.38,475.43Z" transform="translate(-237.57 -287.6)"/><path class="cls-3" d="M314.93,474.2l-.18-.5c8.81-3,14.6-8.58,17.22-16.48,5.36-16.21-2.86-42-22.55-70.84C283.89,349,288,313.27,288,312.91l.53.07c0,.35-4.07,35.94,21.34,73.1,19.79,28.95,28,54.94,22.62,71.3C329.81,465.45,323.9,471.11,314.93,474.2Z" transform="translate(-237.57 -287.6)"/><path class="cls-3" d="M316.48,473l-.18-.51c8-2.76,13.28-8,15.68-15.42,5.15-16-3.44-42-23-69.46-26.08-36.68-23.37-71.79-23.34-72.14l.53,0c0,.35-2.71,35.28,23.25,71.79,19.62,27.59,28.24,53.73,23,69.93C330,464.86,324.65,470.16,316.48,473Z" transform="translate(-237.57 -287.6)"/><path class="cls-3" d="M318,471.75l-.18-.51c7.2-2.48,12-7.3,14.15-14.33,4.92-15.86-4-42-23.39-68.11-26.64-36-25.28-70.48-25.26-70.82l.53,0c0,.34-1.36,34.62,25.16,70.47,19.45,26.29,28.44,52.57,23.47,68.59C330.27,464.27,325.4,469.21,318,471.75Z" transform="translate(-237.57 -287.6)"/><path class="cls-3" d="M319.58,470.53l-.18-.51A19.07,19.07,0,0,0,332,456.8c4.71-15.67-4.64-41.89-23.8-66.79a135.71,135.71,0,0,1-23.91-48.14C281,329.11,281,320.6,281,320.52h.53c0,.08,0,8.54,3.26,21.23a135.08,135.08,0,0,0,23.81,47.93c19.56,25.42,28.72,51.2,23.9,67.28A19.6,19.6,0,0,1,319.58,470.53Z" transform="translate(-237.57 -287.6)"/><path class="cls-3" d="M321.13,469.3l-.18-.51c5.59-1.92,9.32-6,11.08-12.06,4.56-15.72-4.95-41.44-24.22-65.51A140.29,140.29,0,0,1,282.73,344c-3.73-12.51-4-20.86-4-20.94l.53,0c0,.09.3,8.38,4,20.83a139.87,139.87,0,0,0,25,47c19.38,24.21,28.93,50.12,24.33,66C330.76,463.05,326.81,467.34,321.13,469.3Z" transform="translate(-237.57 -287.6)"/><path class="cls-3" d="M322.68,468.07l-.18-.5c4.72-1.63,8-5.39,9.56-10.87,5-17.92-8.78-45.2-24.66-64.28a145.92,145.92,0,0,1-26.25-46.31c-4.12-12.27-4.76-20.44-4.77-20.53l.54,0c0,.08.64,8.2,4.75,20.41a145.38,145.38,0,0,0,26.14,46.12C327,415.14,337,441.16,332.57,456.85,331,462.51,327.57,466.39,322.68,468.07Z" transform="translate(-237.57 -287.6)"/><path class="cls-3" d="M324.23,466.85l-.18-.51c3.93-1.35,6.71-4.68,8-9.62,3.48-13-2.92-37.48-25.09-63.09a152.2,152.2,0,0,1-27.42-45.39c-4.53-12-5.51-20-5.51-20.12l.53-.06c0,.08,1,8,5.49,20a151.68,151.68,0,0,0,27.31,45.21c22.3,25.76,28.73,50.49,25.21,63.58C331.23,462,328.33,465.43,324.23,466.85Z" transform="translate(-237.57 -287.6)"/><path class="cls-3" d="M325.78,465.62l-.18-.5c3.15-1.09,5.41-4,6.54-8.31,3.25-12.58-3.36-37.33-25.54-62A159.28,159.28,0,0,1,278,350.36a99.25,99.25,0,0,1-6.27-19.7l.53-.09c.06.31,5.4,31.34,34.72,63.91,10.22,11.34,18,23.66,22.41,35.61,3.88,10.43,5,20,3.25,26.85C331.48,461.47,329.11,464.48,325.78,465.62Z" transform="translate(-237.57 -287.6)"/><path class="cls-3" d="M327.33,464.4l-.18-.51c2.35-.81,4.14-3.27,5.05-6.93,3.13-12.62-3.67-37.06-26-60.91a167.44,167.44,0,0,1-29.75-43.57c-5.34-11.53-7-19.21-7-19.29l.52-.11c.06.31,6.75,30.68,36.63,62.6,22.47,24,29.3,48.66,26.14,61.41C331.75,461,329.89,463.51,327.33,464.4Z" transform="translate(-237.57 -287.6)"/><path class="cls-3" d="M328.88,463.17l-.18-.51c1.62-.55,2.89-2.48,3.59-5.43,2.52-10.59-2.46-35.3-26.5-60a177,177,0,0,1-30.92-42.64,105.65,105.65,0,0,1-7.76-18.88l.52-.13c.07.29,8.1,30,38.55,61.28,10.75,11,18.82,23.28,23.34,35.39,3.54,9.49,4.77,18.87,3.29,25.08C332.07,460.49,330.67,462.55,328.88,463.17Z" transform="translate(-237.57 -287.6)"/><path class="cls-3" d="M330.43,461.94l-.18-.5c.91-.31,1.7-1.7,2.18-3.8,1.67-7.38.09-32.4-27-59.18-31.11-30.71-40.51-59.9-40.6-60.19l.51-.16c.09.29,9.46,29.36,40.47,60C330.18,422.18,335.4,447,333,457.76,332.42,460.08,331.53,461.57,330.43,461.94Z" transform="translate(-237.57 -287.6)"/><path class="cls-3" d="M332,460.72l-.18-.51c.18-.06.55-.53.85-1.92,1.51-7-.33-32.69-27.66-58.62-31.67-30-42.41-58.58-42.52-58.87l.51-.18c.1.28,10.81,28.71,42.37,58.66,11.74,11.13,20.31,23.76,24.8,36.5,3.62,10.28,3.89,18.61,3,22.63C333,459.34,332.6,460.51,332,460.72Z" transform="translate(-237.57 -287.6)"/><path class="cls-3" d="M333.71,459.27l-.53-.07c0-.28,3.47-29.09-28.6-58.32s-44.3-57.26-44.42-57.54l.49-.21c.12.28,12.17,28.06,44.3,57.35C321.81,415.86,328.73,431,331.57,441,334.65,451.87,333.72,459.2,333.71,459.27Z" transform="translate(-237.57 -287.6)"/></g><path class="cls-1" d="M311.2,287.7s-17.87,42.13,2.23,86.49c12.86,28.36,26.5,58.29,19.9,81.28" transform="translate(-237.57 -287.6)"/><path class="cls-1" d="M260.14,343.23S272,371,304.5,400.68c25.51,23.26,28.65,46,28.81,54.79" transform="translate(-237.57 -287.6)"/><path class="cls-1" d="M259.6,461.74c8.56,17.52,31.63,26.31,50.65,20.33,8.75-2.75,19.26-11.77,23.39-26.63" transform="translate(-237.57 -287.6)"/><g class="cls-4"><path class="cls-1" d="M259.14,461.3a24.36,24.36,0,0,0,3.92,3.47c9.74,7,23.56.59,31.22-6.72,11.55-11,15.64-27.81,14.28-43.3a104.18,104.18,0,0,0-1.86-12.43" transform="translate(-237.57 -287.6)"/><path class="cls-3" d="M272.49,468a16.48,16.48,0,0,1-9.84-3.07c-1.53-1.09-5.18-4-6.09-7l.51-.16c.87,2.87,4.41,5.66,5.89,6.73,10,7.18,23.93-.08,30.88-6.7,10.39-9.91,15.69-26,14.2-43.08a111.54,111.54,0,0,0-10.37-37.62l-.14-.29.49-.23.14.29a112.12,112.12,0,0,1,10.41,37.8c1.51,17.23-3.86,33.5-14.36,43.52C289.23,462.92,280.68,468,272.49,468Z" transform="translate(-237.57 -287.6)"/><path class="cls-3" d="M273.43,468.47A17.64,17.64,0,0,1,262.64,465c-1.89-1.42-5.19-4.26-6.09-7.27l.52-.16c.88,3,4.42,5.89,5.89,7,5.5,4.13,12,3.68,16.41,2.57a36.47,36.47,0,0,0,15.2-8.3c10.31-9.42,15.74-25.15,14.51-42.07a108.35,108.35,0,0,0-9.73-37.06l.49-.22a108.94,108.94,0,0,1,9.78,37.25c1.24,17.07-4.25,33-14.69,42.49a37.06,37.06,0,0,1-15.43,8.43A25.4,25.4,0,0,1,273.43,468.47Z" transform="translate(-237.57 -287.6)"/><path class="cls-3" d="M274.37,469a18.69,18.69,0,0,1-11.74-3.81c-1.88-1.48-5.17-4.42-6.08-7.53l.52-.15c.87,3,4.06,5.82,5.9,7.26,9.21,7.23,23.53,2.94,32.33-4.76,10.24-9,15.78-24.32,14.83-41A105.52,105.52,0,0,0,301,382.4l.49-.22a106.12,106.12,0,0,1,9.15,36.7c1,16.9-4.65,32.4-15,41.48C289.93,465.37,281.89,469,274.37,469Z" transform="translate(-237.57 -287.6)"/><path class="cls-3" d="M275.4,469.54a19.78,19.78,0,0,1-12.77-4.29c-1.87-1.52-5.15-4.57-6.08-7.79l.52-.15c.88,3.09,4.08,6,5.9,7.53,9.4,7.67,24,3.77,33.06-3.8,10.16-8.53,15.82-23.49,15.15-40a102.55,102.55,0,0,0-8.47-35.95l.49-.21A103.37,103.37,0,0,1,311.72,421c.67,16.7-5.06,31.83-15.35,40.46C290.71,466.21,282.85,469.54,275.4,469.54Z" transform="translate(-237.57 -287.6)"/><path class="cls-3" d="M276.39,470.12a20.86,20.86,0,0,1-13.77-4.76c-1.86-1.57-5.12-4.71-6.07-8.05l.52-.15c.9,3.2,4.08,6.26,5.9,7.79,7.16,6.07,21.43,7.15,33.79-2.82,10.07-8.12,15.86-22.7,15.47-39a99.49,99.49,0,0,0-7.85-35.38l.5-.21a100.17,100.17,0,0,1,7.89,35.58c.39,16.48-5.47,31.23-15.67,39.45a35.13,35.13,0,0,1-16.93,7.31A27.6,27.6,0,0,1,276.39,470.12Z" transform="translate(-237.57 -287.6)"/><path class="cls-3" d="M277.52,470.68a22.22,22.22,0,0,1-14.9-5.2c-2.27-2-5.15-5.05-6.07-8.32l.52-.15c.92,3.32,4.09,6.48,5.9,8.06,9.42,8.27,24.95,5.56,34.52-1.85,10-7.73,15.89-21.93,15.79-38a96.61,96.61,0,0,0-7.22-34.82l.5-.2a97.24,97.24,0,0,1,7.26,35c.1,16.24-5.88,30.61-16,38.43A34.22,34.22,0,0,1,277.52,470.68Z" transform="translate(-237.57 -287.6)"/><path class="cls-3" d="M278.64,471.33a23.43,23.43,0,0,1-16-5.74c-2.25-2-5.13-5.19-6.06-8.59l.52-.14c.94,3.45,4.1,6.7,5.9,8.33,9.6,8.72,25.46,6.4,35.25-.88s15.93-21.19,16.11-37a93.8,93.8,0,0,0-6.59-34.27l.5-.2a94.51,94.51,0,0,1,6.63,34.47c-.19,16-6.29,30-16.33,37.42A34.29,34.29,0,0,1,278.64,471.33Z" transform="translate(-237.57 -287.6)"/><path class="cls-3" d="M279.78,472a24.71,24.71,0,0,1-17.18-6.32c-2.23-2.1-5.1-5.33-6.05-8.85l.52-.14c.92,3.4,3.72,6.55,5.9,8.6,9.77,9.16,26,7.23,36,.09,9.82-7,16-20.45,16.43-36a91.06,91.06,0,0,0-6-33.71l.5-.19a91.57,91.57,0,0,1,6,33.91c-.48,15.7-6.71,29.31-16.66,36.41A34.39,34.39,0,0,1,279.78,472Z" transform="translate(-237.57 -287.6)"/><path class="cls-3" d="M280.93,472.72c-6.69,0-13.33-2.07-18.33-6.91-2.22-2.15-5.08-5.47-6.05-9.11l.52-.13c.94,3.51,3.73,6.76,5.9,8.86,9.93,9.6,26.46,8.08,36.71,1.06,9.73-6.66,16-19.74,16.75-35,.52-10.33-1.33-21.8-5.34-33.15l.51-.18A88.77,88.77,0,0,1,317,431.55c-.77,15.4-7.12,28.62-17,35.38A34.47,34.47,0,0,1,280.93,472.72Z" transform="translate(-237.57 -287.6)"/><path class="cls-3" d="M282.09,473.44c-7.11,0-14.21-2.25-19.5-7.51-2.21-2.2-5-5.61-6-9.38l.52-.13c1,3.65,3.74,7,5.9,9.13,7.92,7.88,24.09,10.8,37.44,2,9.65-6.34,16-19,17.07-34,.7-10.07-.92-21.34-4.71-32.59l.51-.17c3.81,11.31,5.44,22.65,4.74,32.8C317,448.75,310.49,461.6,300.71,468A34.6,34.6,0,0,1,282.09,473.44Z" transform="translate(-237.57 -287.6)"/><path class="cls-3" d="M283.34,474.19c-.63,0-1.26,0-1.88-.05a28.36,28.36,0,0,1-18.87-8.1c-2.2-2.25-5-5.74-6-9.64l.52-.13c1,3.78,3.75,7.19,5.9,9.39,8,8.24,24.52,11.61,38.17,3,9.57-6,16.07-18.34,17.39-32.95.89-9.83-.52-20.91-4.08-32l.51-.16c3.58,11.19,5,22.34,4.1,32.24-1.33,14.77-7.93,27.24-17.63,33.35A34.54,34.54,0,0,1,283.34,474.19Z" transform="translate(-237.57 -287.6)"/><path class="cls-3" d="M284.44,475c-7.94,0-16-2.65-21.86-8.8-2.18-2.29-5-5.87-6-9.9l.52-.13c1,3.92,3.77,7.42,5.9,9.66,8.15,8.58,24.93,12.41,38.9,4,9.49-5.73,16.11-17.67,17.71-31.94,1.08-9.59-.11-20.47-3.45-31.47l.51-.15c3.36,11.06,4.56,22,3.47,31.68-1.62,14.44-8.33,26.52-18,32.34A34.87,34.87,0,0,1,284.44,475Z" transform="translate(-237.57 -287.6)"/><path class="cls-3" d="M285.86,475.76c-8.84,0-17.53-3.28-23.28-9.5-2.17-2.33-5-6-6-10.16l.52-.13c1,4.06,3.78,7.64,5.9,9.93,9.42,10.17,26.83,12.34,39.63,5,9.41-5.44,16.15-17,18-30.92,1.27-9.36.29-20.05-2.82-30.92l.51-.15c3.13,10.94,4.12,21.71,2.84,31.14-1.9,14.09-8.74,25.79-18.29,31.31A34.09,34.09,0,0,1,285.86,475.76Z" transform="translate(-237.57 -287.6)"/><path class="cls-3" d="M287,476.55c-9.28,0-18.46-3.54-24.46-10.17a25.79,25.79,0,0,1-6-10.43l.52-.13A25.38,25.38,0,0,0,263,466c9.53,10.55,27.26,13.14,40.36,5.92,9.2-5.08,16.23-16.54,18.35-29.91,1.45-9.14.69-19.64-2.19-30.36l.51-.14c2.95,11,3.69,21.24,2.21,30.58-2.14,13.53-9.28,25.14-18.62,30.29A34.26,34.26,0,0,1,287,476.55Z" transform="translate(-237.57 -287.6)"/><path class="cls-3" d="M288.2,477.36c-9.73,0-19.41-3.81-25.63-10.87a26.72,26.72,0,0,1-6-10.68l.52-.13a26.29,26.29,0,0,0,5.9,10.46c9.63,10.92,27.68,13.94,41.09,6.88,9.14-4.8,16.29-15.88,18.67-28.89,1.66-9.05,1.13-19.08-1.57-29.8l.52-.13c2.72,10.8,3.25,20.9,1.58,30-2.41,13.18-9.67,24.4-18.95,29.28A34.63,34.63,0,0,1,288.2,477.36Z" transform="translate(-237.57 -287.6)"/><path class="cls-3" d="M289.37,478.18c-10.17,0-20.36-4.1-26.81-11.58a27.63,27.63,0,0,1-6-11l.52-.12a27.11,27.11,0,0,0,5.9,10.72c9.73,11.29,28.1,14.74,41.82,7.87,9.07-4.55,16.35-15.23,19-27.89,1.85-8.84,1.53-18.68-.94-29.24l.52-.12c2.49,10.64,2.81,20.55.95,29.47C321.63,459.15,314.25,470,305,474.59A34.94,34.94,0,0,1,289.37,478.18Z" transform="translate(-237.57 -287.6)"/><path class="cls-3" d="M290.55,479c-10.63,0-21.33-4.38-28-12.28a28.56,28.56,0,0,1-6-11.21l.52-.13a28,28,0,0,0,5.9,11c9.81,11.64,28.49,15.51,42.55,8.83,9-4.28,16.42-14.58,19.31-26.87,2-8.64,1.93-18.29-.31-28.68l.52-.11c2.27,10.47,2.37,20.19.32,28.91-2.94,12.45-10.45,22.88-19.61,27.24A35.45,35.45,0,0,1,290.55,479Z" transform="translate(-237.57 -287.6)"/><path class="cls-3" d="M291.74,479.83c-11.09,0-22.31-4.67-29.19-13a29.28,29.28,0,0,1-6-11.47l.52-.13a28.65,28.65,0,0,0,5.9,11.26c9.88,12,28.89,16.28,43.29,9.8,9-4,16.48-13.94,19.63-25.86,2.22-8.44,2.33-17.9.31-28.12l.52-.1c2,10.29,1.93,19.83-.32,28.36-3.18,12.07-10.82,22.12-19.93,26.21A35.84,35.84,0,0,1,291.74,479.83Z" transform="translate(-237.57 -287.6)"/><path class="cls-3" d="M292.68,480.7c-11.47,0-23-5-30.13-13.81a30.16,30.16,0,0,1-6-11.73l.52-.13a29.62,29.62,0,0,0,5.9,11.53c10.1,12.49,29,17.13,44,10.77,8.91-3.77,16.56-13.3,19.95-24.85,2.42-8.26,2.74-17.53.94-27.56l.52-.09c1.82,10.11,1.5,19.46-.95,27.8-3.43,11.7-11.2,21.36-20.25,25.2A37.38,37.38,0,0,1,292.68,480.7Z" transform="translate(-237.57 -287.6)"/><path class="cls-3" d="M293.88,481.59c-11.95,0-24-5.26-31.33-14.53a31.32,31.32,0,0,1-6-12l.52-.13a30.68,30.68,0,0,0,5.9,11.79c10.14,12.81,29.38,17.86,44.75,11.75,8.87-3.52,16.64-12.66,20.27-23.84,2.62-8.08,3.15-17.16,1.57-27l.52-.08c1.6,9.92,1.07,19.09-1.58,27.24-3.68,11.33-11.57,20.6-20.58,24.18A38.06,38.06,0,0,1,293.88,481.59Z" transform="translate(-237.57 -287.6)"/><path class="cls-3" d="M295.15,482.42c-12.46,0-25.06-5.57-32.61-15.25a32.11,32.11,0,0,1-6-12.26l.52-.13A31.51,31.51,0,0,0,263,466.84c10.2,13.08,29.75,18.55,45.49,12.72,6.93-2.56,16-9.91,20.59-22.83,2.82-7.9,3.56-16.79,2.19-26.44l.53-.07c1.38,9.73.64,18.71-2.21,26.69-3.92,10.95-11.93,19.83-20.91,23.15A38.75,38.75,0,0,1,295.15,482.42Z" transform="translate(-237.57 -287.6)"/><path class="cls-3" d="M296.41,483.26c-13,0-26.16-5.88-33.87-16a32.91,32.91,0,0,1-6-12.52l.52-.12A32.59,32.59,0,0,0,263,467c10.19,13.34,30.06,19.23,46.22,13.69,6.9-2.36,16-9.34,20.91-21.82A52.65,52.65,0,0,0,332.91,433l.53-.07c1.17,9.55.21,18.34-2.85,26.14-5,12.66-14.22,19.73-21.23,22.14A40,40,0,0,1,296.41,483.26Z" transform="translate(-237.57 -287.6)"/><path class="cls-3" d="M297.54,484.13a46.11,46.11,0,0,1-22.73-6c-9.53-5.45-16-13.79-18.26-23.49l.52-.12c2.21,9.55,8.61,17.77,18,23.14,10.64,6.09,23.67,7.63,34.83,4.11,11.46-3.6,27.48-18.86,24.68-46.13l.53-.06c2.84,27.6-13.42,43.05-25.05,46.7A41.75,41.75,0,0,1,297.54,484.13Z" transform="translate(-237.57 -287.6)"/></g><path class="cls-3" d="M264.67,466.16a16.84,16.84,0,0,0,7.82,1.82c8.19,0,16.74-5.06,21.72-9.81,10.5-10,15.87-26.29,14.36-43.52A107,107,0,0,0,306.88,403l-.69-.66A104.39,104.39,0,0,1,308,414.7c1.49,17.07-3.81,33.17-14.2,43.08-6.52,6.22-19.22,13-29,7.85Z" transform="translate(-237.57 -287.6)"/><path class="cls-3" d="M260.62,463.77l0,0,.7,1a48.71,48.71,0,0,0,4.29,5.51,40.32,40.32,0,0,0,4.87,4.36,42,42,0,0,0,4.58,3c10.64,6.09,23.67,7.63,34.83,4.11,10.49-3.3,24.81-16.36,25-39.47l.18.19a1.12,1.12,0,0,1,.29.75c-.58,22.81-14.81,35.74-25.31,39a41.75,41.75,0,0,1-12.53,1.88,43.33,43.33,0,0,1-33.2-14.7c-1.27-1.35-2.46-2.83-3.62-4.29s-2.31-3.31-3.45-4.74A31.35,31.35,0,0,1,260.62,463.77Z" transform="translate(-237.57 -287.6)"/><path class="cls-3" d="M332.53,457.88c8.35-23.07-5.5-53.63-18.91-83.22l-.16-.36c-19.93-44-2.42-86.28-2.24-86.7l.49.21c-.17.42-17.59,42.53,2.23,86.27l.17.36c13.36,29.48,26.92,60,18.85,83.21Z" transform="translate(-237.57 -287.6)"/><path class="cls-3" d="M333.3,455.76c-.15-8.51-3.14-31.56-28.72-54.88-32.22-29.38-44.3-57.26-44.42-57.54l.49-.21c.12.28,12.17,28.06,44.3,57.35C321.81,415.86,328.73,431,331.57,441a58.13,58.13,0,0,1,2.25,13.64Z" transform="translate(-237.57 -287.6)"/><g class="cls-5"><path class="cls-6" d="M260.53,403.36a25.39,25.39,0,0,1,8.58,5.37c3.86,3.7,5.49,8.62,5.94,13.83.35,4,.14,8,.91,12,1.21,6.17,4.3,12.5,9.35,16.42,2.52,2,10.17,5.82,12.8,2.05" transform="translate(-237.57 -287.6)"/><path class="cls-6" d="M298.11,453a3.93,3.93,0,0,1-2.11,1.52c-3.51,1.1-9.06-1.46-11.28-3.15-5-3.83-8.07-10.1-9.31-16.17-.79-3.88-.63-7.85-1-11.76a26.88,26.88,0,0,0-1.29-6.11,18.11,18.11,0,0,0-4.71-7.4,24.92,24.92,0,0,0-8.49-5.19" transform="translate(-237.57 -287.6)"/><path class="cls-6" d="M298.11,453a4.3,4.3,0,0,1-2.18,1.64c-3.64,1.27-9.38-1-11.8-2.86-5-3.74-8-9.94-9.27-15.91-.81-3.82-.7-7.72-1.13-11.55a25.86,25.86,0,0,0-1.35-6,17.72,17.72,0,0,0-4.71-7.21,24.34,24.34,0,0,0-8.4-5" transform="translate(-237.57 -287.6)"/><path class="cls-6" d="M298.11,453a4.72,4.72,0,0,1-2.24,1.76c-3.77,1.43-9.71-.62-12.34-2.56-4.94-3.66-7.91-9.78-9.22-15.66-.84-3.75-.78-7.59-1.25-11.34a25.43,25.43,0,0,0-1.39-5.86,17.57,17.57,0,0,0-4.72-7,23.86,23.86,0,0,0-8.32-4.81" transform="translate(-237.57 -287.6)"/><path class="cls-6" d="M298.11,453a5.23,5.23,0,0,1-2.31,1.88c-3.89,1.6-10-.2-12.86-2.27-4.9-3.58-7.84-9.62-9.18-15.4-.86-3.68-.85-7.45-1.36-11.13a24.45,24.45,0,0,0-1.45-5.73,17.19,17.19,0,0,0-4.72-6.83A23.37,23.37,0,0,0,258,408.9" transform="translate(-237.57 -287.6)"/><path class="cls-6" d="M298.11,453a5.56,5.56,0,0,1-2.38,2c-4,1.78-10.36.22-13.38-2-4.86-3.52-7.76-9.47-9.14-15.15-.88-3.62-.92-7.32-1.47-10.92a24.47,24.47,0,0,0-1.5-5.6,17.11,17.11,0,0,0-4.73-6.65,23,23,0,0,0-8.14-4.43" transform="translate(-237.57 -287.6)"/><path class="cls-6" d="M298.11,453a5.94,5.94,0,0,1-2.44,2.11c-4.15,1.94-10.69.64-13.91-1.66-4.81-3.45-7.69-9.31-9.1-14.9-.9-3.55-1-7.19-1.58-10.71a23.86,23.86,0,0,0-1.55-5.47,16.76,16.76,0,0,0-4.74-6.46,22.32,22.32,0,0,0-8.06-4.24" transform="translate(-237.57 -287.6)"/><path class="cls-6" d="M298.11,453a6.43,6.43,0,0,1-2.51,2.23c-4.27,2.11-11,1.06-14.43-1.37-4.76-3.38-7.62-9.15-9.07-14.64-.91-3.49-1.05-7.05-1.68-10.5a23.41,23.41,0,0,0-1.61-5.34,16.59,16.59,0,0,0-4.74-6.28,21.87,21.87,0,0,0-8-4" transform="translate(-237.57 -287.6)"/><path class="cls-6" d="M298.11,453a6.91,6.91,0,0,1-2.57,2.35c-4.41,2.27-11.34,1.47-15-1.07-4.71-3.32-7.54-9-9-14.38-.93-3.43-1.12-6.93-1.8-10.3a22.93,22.93,0,0,0-1.65-5.21,16.32,16.32,0,0,0-4.75-6.09,21.48,21.48,0,0,0-7.88-3.86" transform="translate(-237.57 -287.6)"/><path class="cls-6" d="M298.11,453a7.4,7.4,0,0,1-2.64,2.46c-4.53,2.44-11.66,1.9-15.48-.77-4.66-3.25-7.47-8.84-9-14.12-1-3.37-1.19-6.8-1.91-10.09a22.1,22.1,0,0,0-1.71-5.09,16.11,16.11,0,0,0-4.76-5.89,20.6,20.6,0,0,0-7.79-3.67" transform="translate(-237.57 -287.6)"/><path class="cls-6" d="M298.11,453a8,8,0,0,1-2.7,2.58c-4.66,2.61-12,2.31-16-.47-4.61-3.19-7.4-8.68-8.95-13.87-1-3.3-1.26-6.66-2-9.88a22.15,22.15,0,0,0-1.76-5,16,16,0,0,0-4.77-5.71,20.34,20.34,0,0,0-7.7-3.48" transform="translate(-237.57 -287.6)"/><path class="cls-6" d="M298.11,453a8.44,8.44,0,0,1-2.77,2.7c-4.79,2.77-12.31,2.73-16.53-.17-4.56-3.14-7.32-8.53-8.91-13.62-1-3.24-1.33-6.53-2.13-9.67a21.75,21.75,0,0,0-1.82-4.83,15.61,15.61,0,0,0-4.77-5.52,19.7,19.7,0,0,0-7.61-3.29" transform="translate(-237.57 -287.6)"/><path class="cls-6" d="M298.11,453a9,9,0,0,1-2.83,2.82c-4.92,2.93-12.63,3.14-17.06.12s-7.25-8.37-8.87-13.36c-1-3.17-1.4-6.39-2.25-9.46a20.83,20.83,0,0,0-1.86-4.7,15.5,15.5,0,0,0-4.78-5.34,19.36,19.36,0,0,0-7.53-3.1" transform="translate(-237.57 -287.6)"/><path class="cls-6" d="M298.11,453a9.27,9.27,0,0,1-2.9,2.93c-5,3.1-12.95,3.56-17.58.43-4.45-3-7.17-8.21-8.83-13.11-1-3.11-1.48-6.26-2.36-9.25a20.27,20.27,0,0,0-1.92-4.57,15.23,15.23,0,0,0-4.78-5.15,18.87,18.87,0,0,0-7.44-2.91" transform="translate(-237.57 -287.6)"/><path class="cls-6" d="M298.11,453a10,10,0,0,1-3,3.05c-5.18,3.27-13.28,4-18.11.72-4.4-2.95-7.1-8-8.79-12.85-1.06-3-1.55-6.13-2.47-9a20,20,0,0,0-2-4.45,15.3,15.3,0,0,0-4.79-5,18.35,18.35,0,0,0-7.35-2.71" transform="translate(-237.57 -287.6)"/><path class="cls-6" d="M298.11,453a10.46,10.46,0,0,1-3,3.17c-5.31,3.43-13.6,4.38-18.63,1-4.34-2.9-7-7.9-8.75-12.6-1.09-3-1.62-6-2.58-8.83a20.08,20.08,0,0,0-2-4.32,15,15,0,0,0-4.79-4.77,17.91,17.91,0,0,0-7.27-2.53" transform="translate(-237.57 -287.6)"/><path class="cls-6" d="M298.11,453a11,11,0,0,1-3.09,3.29c-5.44,3.59-13.92,4.79-19.16,1.32-4.29-2.85-6.95-7.75-8.71-12.35-1.11-2.91-1.7-5.86-2.69-8.62a19.72,19.72,0,0,0-2.08-4.19,14.84,14.84,0,0,0-4.8-4.58,17.28,17.28,0,0,0-7.18-2.34" transform="translate(-237.57 -287.6)"/><path class="cls-6" d="M298.11,453a11.42,11.42,0,0,1-3.16,3.4c-5.57,3.76-14.24,5.21-19.69,1.62-4.22-2.79-6.87-7.58-8.66-12.08-1.13-2.86-1.77-5.73-2.81-8.42a18.49,18.49,0,0,0-2.13-4.06,14.63,14.63,0,0,0-4.8-4.4,17,17,0,0,0-7.09-2.15" transform="translate(-237.57 -287.6)"/><path class="cls-6" d="M298.11,453a12,12,0,0,1-3.22,3.52c-5.7,3.92-14.56,5.62-20.22,1.92-4.17-2.74-6.8-7.43-8.62-11.83-1.15-2.79-1.84-5.6-2.92-8.21a18.36,18.36,0,0,0-2.18-3.93,14.44,14.44,0,0,0-4.81-4.21,16.51,16.51,0,0,0-7-2" transform="translate(-237.57 -287.6)"/><path class="cls-6" d="M298.11,453a12.55,12.55,0,0,1-3.29,3.64c-5.83,4.09-14.88,6-20.74,2.21-4.11-2.68-6.72-7.27-8.58-11.57-1.17-2.73-1.91-5.47-3-8a17.66,17.66,0,0,0-2.24-3.8,14.19,14.19,0,0,0-4.82-4,16.06,16.06,0,0,0-6.91-1.77" transform="translate(-237.57 -287.6)"/><path class="cls-6" d="M298.11,453a13.08,13.08,0,0,1-3.35,3.75c-6,4.26-15.2,6.44-21.27,2.52-4.05-2.63-6.65-7.11-8.54-11.32-1.19-2.66-2-5.33-3.14-7.79a17.44,17.44,0,0,0-2.29-3.68,14.3,14.3,0,0,0-4.83-3.83,15.6,15.6,0,0,0-6.83-1.58" transform="translate(-237.57 -287.6)"/><path class="cls-6" d="M298.11,453a13.67,13.67,0,0,1-3.42,3.87c-6.09,4.42-15.51,6.85-21.79,2.81-4-2.57-6.57-6.95-8.5-11.06-1.22-2.6-2-5.2-3.25-7.58a17.63,17.63,0,0,0-2.35-3.55,14,14,0,0,0-4.83-3.64,15.4,15.4,0,0,0-6.74-1.4" transform="translate(-237.57 -287.6)"/><path class="cls-6" d="M298.11,453a14.1,14.1,0,0,1-3.49,4c-6.22,4.58-15.83,7.25-22.31,3.11-3.94-2.52-6.5-6.8-8.47-10.81-1.23-2.53-2.11-5.07-3.36-7.37a16.93,16.93,0,0,0-2.39-3.42,14.12,14.12,0,0,0-4.84-3.46,14.9,14.9,0,0,0-6.65-1.2" transform="translate(-237.57 -287.6)"/><path class="cls-6" d="M298.11,453a14.66,14.66,0,0,1-3.55,4.11c-6.35,4.74-16.15,7.66-22.84,3.41-3.88-2.47-6.43-6.65-8.43-10.56-1.25-2.47-2.18-4.93-3.47-7.16a16.76,16.76,0,0,0-2.45-3.29,13.81,13.81,0,0,0-4.84-3.27,14.47,14.47,0,0,0-6.57-1" transform="translate(-237.57 -287.6)"/><path class="cls-6" d="M298.11,453a15.26,15.26,0,0,1-3.62,4.22c-6.48,4.91-16.46,8.07-23.36,3.71-3.83-2.41-6.35-6.48-8.39-10.3-1.27-2.4-2.25-4.8-3.58-6.95a16.26,16.26,0,0,0-2.5-3.16,13.8,13.8,0,0,0-4.85-3.09,14.14,14.14,0,0,0-6.48-.82" transform="translate(-237.57 -287.6)"/><path class="cls-6" d="M298.11,453a15.8,15.8,0,0,1-3.68,4.34c-6.62,5.07-16.78,8.47-23.89,4-3.77-2.36-6.28-6.33-8.35-10-1.29-2.35-2.32-4.68-3.69-6.75a15.76,15.76,0,0,0-2.56-3A13.81,13.81,0,0,0,244.7,438" transform="translate(-237.57 -287.6)"/><path class="cls-6" d="M298.11,453a16.4,16.4,0,0,1-3.75,4.46c-6.74,5.23-17.09,8.87-24.41,4.3-3.71-2.3-6.2-6.17-8.31-9.78-1.31-2.28-2.4-4.54-3.81-6.54a15.62,15.62,0,0,0-2.6-2.91,13.69,13.69,0,0,0-4.86-2.71,13.55,13.55,0,0,0-6.31-.44" transform="translate(-237.57 -287.6)"/><path class="cls-6" d="M298.11,453a17.12,17.12,0,0,1-3.81,4.58c-6.88,5.4-17.41,9.26-24.94,4.6-3.65-2.26-6.13-6-8.27-9.53a73.5,73.5,0,0,0-3.92-6.33,15.21,15.21,0,0,0-2.66-2.78,13.56,13.56,0,0,0-4.86-2.52,13,13,0,0,0-6.22-.25" transform="translate(-237.57 -287.6)"/><path class="cls-6" d="M298.11,453a17.55,17.55,0,0,1-3.88,4.69c-7,5.55-17.71,9.67-25.46,4.91-3.59-2.21-6.06-5.86-8.23-9.28a64.17,64.17,0,0,0-4-6.12,15.46,15.46,0,0,0-2.71-2.65,13.54,13.54,0,0,0-4.88-2.33,12.68,12.68,0,0,0-6.12-.07" transform="translate(-237.57 -287.6)"/><path class="cls-6" d="M298.11,453a18.13,18.13,0,0,1-3.94,4.81c-7.15,5.71-18,10.06-26,5.2-3.54-2.15-6-5.7-8.19-9a56.67,56.67,0,0,0-4.14-5.91,15.46,15.46,0,0,0-2.77-2.52,13.45,13.45,0,0,0-4.88-2.15,12.46,12.46,0,0,0-6,.13" transform="translate(-237.57 -287.6)"/><path class="cls-6" d="M298.11,453a18.74,18.74,0,0,1-4,4.93c-7.28,5.88-18.34,10.45-26.51,5.5-3.48-2.11-5.91-5.54-8.15-8.77a50.57,50.57,0,0,0-4.25-5.7,15.06,15.06,0,0,0-2.82-2.39,13.48,13.48,0,0,0-4.89-2,12.09,12.09,0,0,0-5.95.32" transform="translate(-237.57 -287.6)"/><path class="cls-6" d="M298.11,453a19.49,19.49,0,0,1-4.07,5.05c-7.41,6-18.65,10.84-27.05,5.79-3.41-2-5.83-5.38-8.1-8.51a43.89,43.89,0,0,0-4.37-5.49,14.5,14.5,0,0,0-2.87-2.27,13.58,13.58,0,0,0-4.89-1.77,12,12,0,0,0-5.86.51" transform="translate(-237.57 -287.6)"/><path class="cls-6" d="M298.11,453a19.54,19.54,0,0,1-4.14,5.16c-7.54,6.21-19,11.24-27.57,6.1-3.35-2-5.75-5.23-8.06-8.26a40,40,0,0,0-4.48-5.28,14.83,14.83,0,0,0-2.92-2.14A13.63,13.63,0,0,0,246,447a11.57,11.57,0,0,0-5.78.7" transform="translate(-237.57 -287.6)"/><path class="cls-6" d="M298.11,453a20.28,20.28,0,0,1-4.2,5.28c-7.67,6.38-19.26,11.63-28.1,6.4-3.29-2-5.68-5.08-8-8a37.3,37.3,0,0,0-4.59-5.07,14.29,14.29,0,0,0-3-2,13.59,13.59,0,0,0-4.9-1.4,11.59,11.59,0,0,0-5.69.89" transform="translate(-237.57 -287.6)"/><path class="cls-6" d="M298.11,453a21.11,21.11,0,0,1-4.27,5.4c-7.8,6.54-19.57,12-28.62,6.69-3.24-1.9-5.6-4.91-8-7.74a34,34,0,0,0-4.7-4.87,14,14,0,0,0-3-1.88,13.59,13.59,0,0,0-4.91-1.21,11.29,11.29,0,0,0-5.6,1.08" transform="translate(-237.57 -287.6)"/><path class="cls-6" d="M298.11,453a21.48,21.48,0,0,1-4.33,5.52c-7.93,6.7-19.88,12.39-29.15,7-3.18-1.85-5.53-4.76-7.94-7.49a31.16,31.16,0,0,0-4.82-4.66,14.29,14.29,0,0,0-3.08-1.75,13.55,13.55,0,0,0-4.91-1,11.07,11.07,0,0,0-5.52,1.26" transform="translate(-237.57 -287.6)"/><path class="cls-6" d="M298.11,453a21.89,21.89,0,0,1-4.4,5.63c-8.06,6.87-20.17,12.78-29.67,7.29-6.09-3.51-9.2-10.83-16-13.3a12.37,12.37,0,0,0-10.35.62" transform="translate(-237.57 -287.6)"/></g><path class="cls-3" d="M294.59,454.91c-3.49,0-7.87-2.45-9.48-3.7-4.66-3.61-8.11-9.67-9.47-16.62a48.68,48.68,0,0,1-.68-7.67c-.06-1.42-.11-2.9-.23-4.33-.52-5.9-2.43-10.35-5.84-13.62a22.15,22.15,0,0,0-7.87-5.09l-.86-1a27.92,27.92,0,0,1,9.18,5.58c3.53,3.38,5.51,8,6,14,.12,1.45.18,2.93.23,4.36a48.28,48.28,0,0,0,.67,7.57c1.33,6.8,4.69,12.72,9.23,16.23,1.69,1.32,6.57,4,9.95,3.51a3.84,3.84,0,0,0,2.65-1.2l.27.18a4,4,0,0,1-2.82,1.66A6.15,6.15,0,0,1,294.59,454.91Z" transform="translate(-237.57 -287.6)"/><path class="cls-3" d="M261.61,463.79a47.35,47.35,0,0,1-4.25-4.25l-.69-.74-.09.85.3.33a44.44,44.44,0,0,0,4.57,4.53Z" transform="translate(-237.57 -287.6)"/></svg>